{"title":"The.Yes.Men.Fix.The.World.VODO.2009 (iPod,iPhone)","uid":5840992,"size":362975684,"categoryP":"video","categoryS":"handheld","magnet":"?xt=urn:btih:378a52edf9ad1c58b2028af18f88699a6ef61bdf&amp;dn=The.Yes.Men.Fix.The.World.VODO.2009+%28iPod%2CiPhone%29&amp;tr=udp%3A%2F%2Ftracker.openbittorrent.com%3A80&amp;tr=udp%3A%2F%2Fopen.demonii.com%3A1337&amp;tr=udp%3A%2F%2Ftracker.coppersurfer.tk%3A6969&amp;tr=udp%3A%2F%2Fexodus.desync.com%3A6969","seeders":1,"leechers":0,"uploader":"H4X04","files":-1,"time":1284961314,"description":"The Yes Men Fix the World (2009)\n\nThe film consists of a several pranks on major \ncorporations and governmental agencies that are \nperformed by Andy Bichlbaum and Mike Bonanno \n(in real life Jacques Servin &amp; Igor Vamos) who \nfancy themselves serious anti-globalization activists. \n\nCodec ID                         : M4V \nFile size                        : 346 MiB\nDuration                         : 1h 35mn\nOverall bit rate                 : 506 Kbps\nMovie name                       : The.Yes.Men.Fix.The.World\nWriting application              : Lavf52.39.1\nComment                          : QuickTime 6.0 or greater\n\nVideo\nID                               : 1\nFormat                           : MPEG-4 Visual\nFormat profile                   : Simple@L1\nFormat settings, BVOP            : No\nFormat settings, QPel            : No\nFormat settings, GMC             : No warppoints\nFormat settings, Matrix          : Default (H.263)\nCodec ID                         : 20\nDuration                         : 1h 35mn\nBit rate mode                    : Constant\nBit rate                         : 440 Kbps\nWidth                            : 640 pixels\nHeight                           : 480 pixels\nDisplay aspect ratio             : 4:3\nOriginal display aspect ratio    : 16:9\nFrame rate mode                  : Constant\nFrame rate                       : 25.000 fps\nColor space                      : YUV\nChroma subsampling               : 4:2:0\nBit depth                        : 8 bits\nScan type                        : Progressive\nBits/(Pixel*Frame)               : 0.057\nStream size                      : 300 MiB (87%)\nWriting library                  : Lavc52.37.0\nLanguage                         : English\n\nAudio\nID                               : 2\nFormat                           : AAC\nFormat/Info                      : Advanced Audio Codec\nFormat version                   : Version 4\nFormat profile                   : LC\nFormat settings, SBR             : Yes\nFormat settings, PS              : No\nCodec ID                         : 40\nDuration                         : 1h 35mn\nBit rate mode                    : Constant\nBit rate                         : 64.0 Kbps\nChannel(s)                       : 2 channels\nChannel positions                : Front: L R\nSampling rate                    : 48.0 KHz\nStream size                      : 43.8 MiB (13%)\nLanguage                         : English\n\nPlease seed after you download.","torrent":{"xt":"urn:btih:378a52edf9ad1c58b2028af18f88699a6ef61bdf","amp;dn":"The.Yes.Men.Fix.The.World.VODO.2009+%28iPod%2CiPhone%29","amp;tr":["udp%3A%2F%2Ftracker.openbittorrent.com%3A80","udp%3A%2F%2Fopen.demonii.com%3A1337","udp%3A%2F%2Ftracker.coppersurfer.tk%3A6969","udp%3A%2F%2Fexodus.desync.com%3A6969"],"infoHash":"378a52edf9ad1c58b2028af18f88699a6ef61bdf","infoHashBuffer":{"type":"Buffer","data":[55,138,82,237,249,173,28,88,178,2,138,241,143,136,105,154,110,246,27,223]},"announce":[],"urlList":[]}}